<?xml version="1.0" standalone="no"?>
<!DOCTYPE svg PUBLIC "-//W3C//DTD SVG 20010904//EN"
 "http://www.w3.org/TR/2001/REC-SVG-20010904/DTD/svg10.dtd">
<svg version="1.0" xmlns="http://www.w3.org/2000/svg"
 width="660.000000pt" height="660.000000pt" viewBox="0 0 660.000000 660.000000"
 preserveAspectRatio="xMidYMid meet">
<metadata>
Created by potrace 1.11, written by Peter Selinger 2001-2013
</metadata>
<g transform="translate(0.000000,660.000000) scale(0.100000,-0.100000)"
fill="#000000" stroke="none">
<path d="M6345 6465 c-71 -13 -148 -27 -170 -30 -22 -4 -105 -17 -185 -31 -80
-13 -147 -24 -150 -24 -3 0 -5 -584 -4 -1297 0 -714 -4 -1310 -9 -1324 -28
-89 -144 -98 -179 -15 -10 25 -13 295 -13 1314 l0 1283 -55 -6 c-30 -4 -57 -8
-60 -10 -3 -1 -27 -6 -55 -9 -27 -4 -57 -9 -65 -11 -18 -5 -24 -6 -214 -36
-116 -19 -150 -28 -155 -41 -3 -9 -6 -583 -5 -1275 0 -982 3 -1274 14 -1333
15 -89 51 -203 84 -268 l24 -47 -29 -57 c-40 -80 -77 -216 -86 -318 -8 -90
-10 -2546 -2 -2554 2 -3 61 -14 129 -26 69 -11 139 -23 155 -26 92 -16 144
-25 180 -30 22 -3 60 -10 85 -14 25 -5 47 -6 50 -3 3 2 6 581 6 1286 1 705 2
1288 3 1295 0 8 14 27 30 43 46 46 111 35 147 -24 18 -31 19 -74 19 -1337 l0
-1304 44 -8 c25 -4 61 -10 81 -13 20 -3 47 -8 60 -10 29 -6 39 -8 175 -30 55
-9 111 -18 125 -21 14 -2 41 -7 60 -10 19 -3 54 -9 78 -14 38 -7 42 -6 43 14
4 136 0 2710 -5 2764 -9 94 -48 228 -95 323 l-37 77 27 53 c58 116 90 221 105
344 4 32 7 671 7 1420 0 1159 -2 1360 -14 1362 -8 0 -72 -9 -144 -22z"/>
<path d="M4265 6123 c-260 -54 -468 -272 -559 -585 -13 -46 -27 -105 -31 -133
-11 -67 -13 -4069 -3 -4165 27 -248 162 -501 338 -634 255 -191 556 -152 747
99 45 59 88 148 120 250 l28 90 2 2235 c3 2177 2 2237 -17 2322 -59 269 -217
456 -431 513 -51 14 -149 18 -194 8z m55 -713 c11 -11 22 -30 25 -42 3 -13 4
-949 3 -2080 l-3 -2056 -24 -26 c-28 -30 -57 -33 -90 -10 -54 38 -51 -77 -51
2114 0 1485 3 2037 11 2053 34 66 90 86 129 47z"/>
<path d="M2940 5900 c-52 -10 -111 -20 -130 -23 -29 -4 -95 -15 -250 -41 -14
-3 -33 -5 -42 -5 -17 -1 -18 -128 -18 -2521 0 -1386 3 -2520 8 -2521 4 0 14
-2 22 -4 8 -2 33 -6 55 -10 22 -3 47 -8 55 -10 8 -2 35 -7 60 -10 25 -3 52 -8
60 -10 8 -3 38 -7 65 -10 28 -3 66 -10 85 -15 35 -9 142 -24 170 -24 185 0
362 153 438 379 19 55 25 81 40 155 3 14 6 405 7 870 3 955 2 961 -72 1146
l-24 62 25 61 c15 33 36 100 48 148 22 87 22 96 22 953 1 476 -3 889 -7 919
-20 126 -79 269 -146 351 -58 72 -92 99 -168 137 -89 43 -163 49 -303 23z
m126 -651 c18 -20 19 -48 22 -768 2 -410 0 -759 -3 -776 -3 -16 -12 -38 -20
-48 -15 -20 -75 -38 -104 -30 -17 4 -17 42 -16 821 1 449 3 817 4 818 0 0 23
2 49 3 38 1 53 -3 68 -20z m-23 -2271 c46 -24 47 -31 47 -823 0 -806 0 -795
-52 -808 -13 -4 -39 -4 -58 -1 l-36 6 2 816 c0 450 2 818 3 819 5 6 80 -1 94
-9z"/>
<path d="M2359 5805 c-4 -3 -184 -37 -279 -51 -19 -3 -46 -7 -60 -10 -14 -2
-38 -6 -55 -9 -16 -3 -41 -7 -55 -10 -14 -3 -41 -7 -60 -10 -19 -3 -60 -10
-90 -15 -30 -6 -75 -13 -100 -16 -81 -11 -75 11 -75 -306 l0 -283 25 1 c14 0
55 4 93 8 l67 8 1 -48 c0 -27 1 -534 2 -1126 2 -592 5 -1079 8 -1082 4 -4 353
-11 384 -7 7 1 11 371 10 1158 l0 1158 99 12 c54 7 101 15 105 19 12 11 7 594
-5 604 -6 6 -13 8 -15 5z"/>
<path d="M1120 5591 c-96 -31 -185 -110 -249 -220 -43 -73 -94 -213 -108 -296
-4 -27 -8 -439 -8 -915 0 -857 0 -866 22 -947 46 -171 137 -309 244 -368 47
-26 64 -30 134 -30 70 0 87 4 134 30 102 57 201 196 244 345 40 138 42 196 41
1055 0 457 -4 853 -8 880 -29 206 -130 383 -252 445 -52 26 -148 36 -194 21z
m77 -598 c7 -22 11 -1443 4 -1560 -1 -26 -34 -63 -56 -63 -8 0 -23 12 -32 27
-17 25 -18 78 -19 798 -1 813 -2 809 43 834 24 13 49 -2 60 -36z"/>
<path d="M595 5503 c-71 -12 -146 -25 -165 -28 -108 -17 -279 -46 -303 -51
l-27 -6 0 -260 0 -260 27 6 c16 3 49 8 76 11 l47 6 0 -1023 0 -1023 158 -2
159 -3 -1 1036 c-1 570 2 1041 5 1046 4 6 22 12 40 14 69 7 110 14 117 18 8 5
10 532 2 538 -3 2 -63 -6 -135 -19z"/>
<path d="M249 2746 c-1 -6 -2 -357 -3 -779 0 -502 2 -771 9 -776 6 -5 30 -11
55 -14 25 -4 56 -9 70 -12 14 -3 45 -8 70 -11 25 -3 53 -7 62 -10 23 -7 45
-11 98 -18 25 -3 56 -8 70 -11 14 -3 41 -8 60 -11 19 -3 81 -14 138 -23 l102
-18 0 249 c0 136 -4 248 -8 248 -8 0 -223 27 -278 35 -16 2 -59 7 -95 11 -35
3 -65 7 -66 8 -3 3 -5 43 -4 74 1 28 4 32 24 28 12 -3 45 -8 72 -11 28 -3 84
-10 125 -15 41 -5 100 -12 130 -15 30 -3 65 -7 78 -9 l22 -5 0 250 0 249 -37
1 c-21 0 -51 2 -68 3 -26 3 -159 13 -265 21 -19 2 -45 4 -56 4 -22 1 -33 29
-26 64 4 21 16 20 385 -9 l67 -5 0 246 c0 189 -3 245 -12 246 -37 4 -139 8
-378 14 -146 4 -282 8 -302 9 -22 2 -38 -2 -39 -8z"/>
<path d="M1059 2716 c-4 -46 -3 -1660 1 -1666 3 -4 61 -17 130 -28 69 -12 140
-24 158 -28 l32 -6 1 438 0 439 39 -105 c31 -84 238 -668 282 -796 l11 -31
171 -27 c94 -16 178 -29 186 -31 8 -1 38 -6 65 -9 l50 -7 -2 178 c-1 98 -4
508 -6 910 -2 403 -6 735 -9 738 -3 3 -65 8 -139 11 -74 3 -162 7 -196 9 l-63
3 -1 -71 c0 -40 0 -243 -1 -452 0 -331 -2 -376 -14 -350 -13 28 -60 156 -167
455 -52 142 -132 362 -148 401 -10 26 -13 27 -107 29 -53 1 -136 3 -184 4 -60
2 -88 0 -89 -8z"/>
</g>
</svg>
